<?xml version="1.0" standalone="no"?>
<!DOCTYPE svg PUBLIC "-//W3C//DTD SVG 20010904//EN"
 "http://www.w3.org/TR/2001/REC-SVG-20010904/DTD/svg10.dtd">
<svg version="1.0" xmlns="http://www.w3.org/2000/svg"
 width="512.000000pt" height="512.000000pt" viewBox="0 0 512.000000 512.000000"
 preserveAspectRatio="xMidYMid meet">

<g transform="translate(0.000000,512.000000) scale(0.100000,-0.100000)"
fill="currentColor" stroke="none">
<path d="M1668 3569 c-143 -8 -261 -25 -289 -40 -26 -13 -24 -39 7 -80 36 -48
72 -121 82 -167 25 -111 -131 -907 -230 -1171 -23 -61 -26 -64 -79 -85 -122
-48 -219 -119 -219 -162 0 -47 100 -214 163 -273 23 -20 30 -22 56 -13 53 18
142 83 212 154 37 37 72 68 79 68 21 0 174 -75 277 -136 201 -118 296 -144
400 -110 134 45 212 189 229 427 l7 86 -29 7 c-16 4 -36 9 -46 12 -12 4 -27
-15 -58 -71 -59 -106 -65 -109 -213 -102 -182 8 -477 72 -477 103 0 7 50 151
110 319 232 644 300 882 300 1056 0 48 -7 108 -15 137 l-16 52 -62 -1 c-34 -1
-119 -5 -189 -10z"/>
<path d="M3225 3570 c-143 -8 -365 -32 -490 -53 -94 -17 -97 -34 -20 -120 70
-76 95 -124 95 -178 0 -104 -52 -377 -175 -919 -81 -358 -145 -668 -145 -701
0 -22 1 -22 148 -16 101 4 168 12 215 25 37 11 70 22 73 25 3 3 10 41 15 84
20 157 131 703 149 733 4 7 37 14 72 17 l65 6 18 -79 c114 -523 221 -766 361
-820 123 -47 380 32 534 165 l43 37 -27 47 c-16 26 -31 47 -34 47 -4 0 -41
-13 -82 -30 -101 -40 -120 -39 -163 9 -47 52 -79 108 -129 227 -46 110 -158
439 -158 463 0 9 32 33 73 56 200 111 327 333 327 571 0 194 -84 317 -253 373
-118 39 -224 46 -512 31z m255 -189 c99 -68 107 -328 16 -516 -64 -133 -147
-197 -273 -211 -95 -10 -94 -12 -67 108 32 140 101 491 110 554 3 28 9 56 13
63 9 14 107 30 146 24 17 -2 41 -12 55 -22z"/>
</g>
</svg>
